<svg xmlns="http://www.w3.org/2000/svg" xmlns:xlink="http://www.w3.org/1999/xlink" contentStyleType="text/css" data-diagram-type="DESCRIPTION" height="505px" preserveAspectRatio="none" style="width:1865px;height:505px;background:#1B1B1B;" version="1.1" viewBox="0 0 1865 505" width="1865px" zoomAndPan="magnify"><defs/><g><rect fill="#1B1B1B" height="505" style="stroke:none;stroke-width:1;" width="1865" x="0" y="0"/><!--cluster Sistema ConnectAI Sa?de--><g class="cluster" data-entity="Sistema ConnectAI Sa.de" data-source-line="4" data-uid="ent0004" id="cluster_Sistema ConnectAI Sa.de"><rect fill="none" height="370.48" rx="2.5" ry="2.5" style="stroke:#E7E7E7;stroke-width:1;" width="1819" x="7" y="128.8"/><text fill="#FFFFFF" font-family="sans-serif" font-size="14" font-weight="bold" lengthAdjust="spacing" textLength="202.5557" x="815.2222" y="143.7951">Sistema ConnectAI Sa&#250;de</text></g><!--entity UC1--><g class="entity" data-entity="UC1" data-source-line="5" data-uid="ent0005" id="entity_UC1"><ellipse cx="574.0046" cy="194.5569" fill="#313139" rx="93.3846" ry="21.0769" style="stroke:#E7E7E7;stroke-width:0.5;"/><text fill="#FFFFFF" font-family="sans-serif" font-size="14" lengthAdjust="spacing" textLength="161.3623" x="493.3234" y="199.2054">UC01: Gerenciar Conta</text></g><!--entity UC2--><g class="entity" data-entity="UC2" data-source-line="6" data-uid="ent0006" id="entity_UC2"><ellipse cx="810.0049" cy="194.561" fill="#313139" rx="107.4549" ry="23.891" style="stroke:#E7E7E7;stroke-width:0.5;"/><text fill="#FFFFFF" font-family="sans-serif" font-size="14" lengthAdjust="spacing" textLength="192.3633" x="713.8233" y="199.2094">UC02: Consultar Chatbot IA</text></g><!--entity UC3--><g class="entity" data-entity="UC3" data-source-line="9" data-uid="ent0007" id="entity_UC3"><ellipse cx="114.9981" cy="194.5596" fill="#313139" rx="92.1481" ry="20.8296" style="stroke:#E7E7E7;stroke-width:0.5;"/><text fill="#FFFFFF" font-family="sans-serif" font-size="14" lengthAdjust="spacing" textLength="158.5869" x="35.7046" y="199.2081">UC03: Agendar Exame</text></g><!--entity UC4--><g class="entity" data-entity="UC4" data-source-line="10" data-uid="ent0008" id="entity_UC4"><ellipse cx="147.0009" cy="332.4502" fill="#313139" rx="124.3509" ry="27.2702" style="stroke:#E7E7E7;stroke-width:0.5;"/><text fill="#FFFFFF" font-family="sans-serif" font-size="14" lengthAdjust="spacing" textLength="228.6143" x="32.6938" y="337.0986">UC04: Pesquisar M&#233;dicos com IA</text></g><!--entity UC5--><g class="entity" data-entity="UC5" data-source-line="11" data-uid="ent0009" id="entity_UC5"><ellipse cx="147.0005" cy="461.4341" fill="#313139" rx="97.2705" ry="21.8541" style="stroke:#E7E7E7;stroke-width:0.5;"/><text fill="#FFFFFF" font-family="sans-serif" font-size="14" lengthAdjust="spacing" textLength="170.0234" x="61.9887" y="466.0825">UC05: Ordenar por Data</text></g><!--entity UC6--><g class="entity" data-entity="UC6" data-source-line="12" data-uid="ent0010" id="entity_UC6"><ellipse cx="344.0038" cy="194.5588" fill="#313139" rx="101.8938" ry="22.7788" style="stroke:#E7E7E7;stroke-width:0.5;"/><text fill="#FFFFFF" font-family="sans-serif" font-size="14" lengthAdjust="spacing" textLength="180.2227" x="253.8924" y="199.2072">UC06: Consultar Hist&#243;rico</text></g><!--entity UC7--><g class="entity" data-entity="UC7" data-source-line="15" data-uid="ent0011" id="entity_UC7"><ellipse cx="1373.0031" cy="194.5606" fill="#313139" rx="141.8031" ry="30.7606" style="stroke:#E7E7E7;stroke-width:0.5;"/><text fill="#FFFFFF" font-family="sans-serif" font-size="14" lengthAdjust="spacing" textLength="265.3779" x="1240.3141" y="199.209">UC07: Solicitar Autoriza&#231;&#227;o de Exame</text></g><!--entity UC8--><g class="entity" data-entity="UC8" data-source-line="16" data-uid="ent0012" id="entity_UC8"><ellipse cx="1372.9974" cy="332.4455" fill="#313139" rx="138.6274" ry="30.1255" style="stroke:#E7E7E7;stroke-width:0.5;"/><text fill="#FFFFFF" font-family="sans-serif" font-size="14" lengthAdjust="spacing" textLength="258.7266" x="1243.6341" y="337.0939">UC08: Receber Notifica&#231;&#227;o de Status</text></g><!--entity UC9--><g class="entity" data-entity="UC9" data-source-line="17" data-uid="ent0013" id="entity_UC9"><ellipse cx="1680.0014" cy="194.5603" fill="#313139" rx="130.1014" ry="28.4203" style="stroke:#E7E7E7;stroke-width:0.5;"/><text fill="#FFFFFF" font-family="sans-serif" font-size="14" lengthAdjust="spacing" textLength="240.7891" x="1559.6069" y="199.2087">UC09: Revisar Pedido de Auditoria</text></g><!--entity UC10--><g class="entity" data-entity="UC10" data-source-line="18" data-uid="ent0014" id="entity_UC10"><ellipse cx="1074.0042" cy="194.5648" fill="#313139" rx="121.7242" ry="26.7448" style="stroke:#E7E7E7;stroke-width:0.5;"/><text fill="#FFFFFF" font-family="sans-serif" font-size="14" lengthAdjust="spacing" textLength="223.0293" x="962.4896" y="199.2133">UC10: Aprovar/Reprovar Pedido</text></g><!--entity Paciente--><g class="entity" data-entity="Paciente" data-source-line="1" data-uid="ent0002" id="entity_Paciente"><ellipse cx="506.9986" cy="14" fill="#313139" rx="8" ry="8" style="stroke:#E7E7E7;stroke-width:0.5;"/><path d="M506.9986,22 L506.9986,49 M493.9986,30 L519.9986,30 M506.9986,49 L493.9986,64 M506.9986,49 L519.9986,64" fill="none" style="stroke:#E7E7E7;stroke-width:0.5;"/><text fill="#FFFFFF" font-family="sans-serif" font-size="14" lengthAdjust="spacing" textLength="60.1973" x="476.9" y="78.4951">Paciente</text></g><!--entity Medico--><g class="entity" data-entity="Medico" data-source-line="2" data-uid="ent0003" id="entity_Medico"><ellipse cx="1200.9957" cy="14" fill="#313139" rx="8" ry="8" style="stroke:#E7E7E7;stroke-width:0.5;"/><path d="M1200.9957,22 L1200.9957,49 M1187.9957,30 L1213.9957,30 M1200.9957,49 L1187.9957,64 M1200.9957,49 L1213.9957,64" fill="none" style="stroke:#E7E7E7;stroke-width:0.5;"/><text fill="#FFFFFF" font-family="sans-serif" font-size="14" lengthAdjust="spacing" textLength="49.7314" x="1176.13" y="78.4951">Medico</text></g><!--link Paciente to UC1--><g class="link" data-entity-1="Paciente" data-entity-2="UC1" data-source-line="22" data-uid="lnk15" id="link_Paciente_UC1"><path d="M523.91,82.23 C536.93,111.18 554.44,150.08 564.93,173.4" fill="none" id="Paciente-UC1" style="stroke:#E7E7E7;stroke-width:1;"/></g><!--link Paciente to UC2--><g class="link" data-entity-1="Paciente" data-entity-2="UC2" data-source-line="23" data-uid="lnk16" id="link_Paciente_UC2"><path d="M537.43,56.34 C573.29,70.42 634.4,95.37 685,120.8 C716.07,136.42 750.11,156.43 774.81,171.52" fill="none" id="Paciente-UC2" style="stroke:#E7E7E7;stroke-width:1;"/></g><!--link Paciente to UC3--><g class="link" data-entity-1="Paciente" data-entity-2="UC3" data-source-line="24" data-uid="lnk17" id="link_Paciente_UC3"><path d="M476.69,49.54 C423.84,58.77 312.12,81.47 225,120.8 C193.49,135.03 160.88,157.78 139.43,174.06" fill="none" id="Paciente-UC3" style="stroke:#E7E7E7;stroke-width:1;"/></g><!--link Paciente to UC6--><g class="link" data-entity-1="Paciente" data-entity-2="UC6" data-source-line="25" data-uid="lnk18" id="link_Paciente_UC6"><path d="M476.72,72.31 C445.14,101.16 396.31,145.77 367.51,172.08" fill="none" id="Paciente-UC6" style="stroke:#E7E7E7;stroke-width:1;"/></g><!--link Medico to UC1--><g class="link" data-entity-1="Medico" data-entity-2="UC1" data-source-line="28" data-uid="lnk19" id="link_Medico_UC1"><path d="M1175.87,44.58 C1099.44,45.16 864.01,52.73 685,120.8 C652.05,133.33 618.84,156.87 597.44,173.79" fill="none" id="Medico-UC1" style="stroke:#E7E7E7;stroke-width:1;"/></g><!--link Medico to UC2--><g class="link" data-entity-1="Medico" data-entity-2="UC2" data-source-line="29" data-uid="lnk20" id="link_Medico_UC2"><path d="M1175.72,49.69 C1127.6,59.75 1020.06,84.54 935,120.8 C902.2,134.78 867.33,155.64 842.77,171.44" fill="none" id="Medico-UC2" style="stroke:#E7E7E7;stroke-width:1;"/></g><!--link Medico to UC7--><g class="link" data-entity-1="Medico" data-entity-2="UC7" data-source-line="30" data-uid="lnk21" id="link_Medico_UC7"><path d="M1226.01,66.3 C1255.92,92.2 1306.1,135.64 1339.38,164.45" fill="none" id="Medico-UC7" style="stroke:#E7E7E7;stroke-width:1;"/></g><!--link Medico to UC8--><g class="link" data-entity-1="Medico" data-entity-2="UC8" data-source-line="31" data-uid="lnk22" id="link_Medico_UC8"><path d="M1226.03,45.77 C1337.77,51.01 1787.28,74.84 1828,120.8 C1858.8,155.57 1856.88,188.93 1828,225.32 C1787.54,276.31 1618.96,305.08 1498.82,319.45" fill="none" id="Medico-UC8" style="stroke:#E7E7E7;stroke-width:1;"/></g><!--link Medico to UC9--><g class="link" data-entity-1="Medico" data-entity-2="UC9" data-source-line="32" data-uid="lnk23" id="link_Medico_UC9"><path d="M1226.05,48.38 C1282.06,57.16 1421.16,81.4 1532,120.8 C1567.48,133.41 1605.56,152.26 1634.21,167.62" fill="none" id="Medico-UC9" style="stroke:#E7E7E7;stroke-width:1;"/></g><!--link Medico to UC10--><g class="link" data-entity-1="Medico" data-entity-2="UC10" data-source-line="33" data-uid="lnk24" id="link_Medico_UC10"><path d="M1175.91,74.07 C1152.49,101.53 1117.9,142.09 1095.66,168.17" fill="none" id="Medico-UC10" style="stroke:#E7E7E7;stroke-width:1;"/></g><!--link UC3 to UC4--><g class="link" data-entity-1="UC3" data-entity-2="UC4" data-source-line="36" data-uid="lnk25" id="link_UC3_UC4"><path d="M119.72,215.61 C125.29,239.24 133.1737,272.74 139.3437,298.92" fill="none" id="UC3-to-UC4" style="stroke:#E7E7E7;stroke-width:1;stroke-dasharray:7,7;"/><polygon fill="#E7E7E7" points="140.72,304.76,142.5488,295.0824,139.573,299.8933,134.7621,296.9176,140.72,304.76" style="stroke:#E7E7E7;stroke-width:1;"/><text fill="#FFFFFF" font-family="sans-serif" font-size="13" lengthAdjust="spacing" textLength="63.0068" x="134" y="268.3869">&#171;include&#187;</text></g><!--reverse link UC4 to UC5--><g class="link" data-entity-1="UC4" data-entity-2="UC5" data-source-line="37" data-uid="lnk26" id="link_UC4_UC5"><path d="M147,366.07 C147,389.63 147,417.56 147,439.3" fill="none" id="UC4-backto-UC5" style="stroke:#E7E7E7;stroke-width:1;stroke-dasharray:7,7;"/><polygon fill="#E7E7E7" points="147,360.07,143,369.07,147,365.07,151,369.07,147,360.07" style="stroke:#E7E7E7;stroke-width:1;"/><text fill="#FFFFFF" font-family="sans-serif" font-size="13" lengthAdjust="spacing" textLength="61.1851" x="148" y="405.6369">&#171;extend&#187;</text></g><!--link UC10 to UC8--><g class="link" data-entity-1="UC10" data-entity-2="UC8" data-source-line="38" data-uid="lnk27" id="link_UC10_UC8"><path d="M1125.74,219.07 C1178.22,242.93 1253.8676,277.3076 1308.7476,302.2476" fill="none" id="UC10-to-UC8" style="stroke:#E7E7E7;stroke-width:1;stroke-dasharray:7,7;"/><polygon fill="#E7E7E7" points="1314.21,304.73,1307.6713,297.3648,1309.658,302.6614,1304.3615,304.6481,1314.21,304.73" style="stroke:#E7E7E7;stroke-width:1;"/><text fill="#FFFFFF" font-family="sans-serif" font-size="13" lengthAdjust="spacing" textLength="63.0068" x="1242" y="268.3869">&#171;include&#187;</text></g><!--SRC=[VLBBRjim4BppAnQ- -1H7jXC_1CE0u1Qj3saC6_w0DRb92CXYIbA1qQ9VqqFHSv1BhlgnBXMfjYmaEb0SScPV79JUM5YXr9Hv4bZ26r9Q6Y4iIO_PVKhGsMZdQO-mC5d6fyaIDbYyAkh0Jm7yvOuaEYPk5r4_XYzaAPCQRH1ux00ws2xwBUeW3WINfpvG7z3lZ8TbKl479RzSkh10PnmeWgqpeConvlEOmnYIUyeKH_nym3rLmOOjubKCAtBVS-sOUbFy3Kqxa6P_hE2g9RgEuTOgobZooAFwXF-xksvnHwVTVUK95i-MSrJyqKVTLUMqGevZs9XKInr29Zc_blw1nP_YjmdYqtx7BUqaXZL9sf65RyRhEosFoer7dxjAEcb9fq7wL0vgnUPGfIR9bGu5r0EOdilw4J_5epLFQ2_NzBQfzBKZ8l5BY2uapXcs2vVpGYxqdpHiMM_WugAqKHCFpl3m38_Upr0v_UrNHpz5WmOQDz2aWQRDA558kgQqpiZbM6eyi-1AeTUR1vj13BEPpcIQAvhFHJYPzNh1LEKD7JmRkhpeHvLcqjJy0m00]--></g></svg>